<svg width="25" height="24" viewBox="0 0 25 24" fill="none" xmlns="http://www.w3.org/2000/svg">
<path d="M2.96094 22H22.9063" stroke="#B6B6B6" stroke-width="1.5" stroke-miterlimit="10" stroke-linecap="round" stroke-linejoin="round"/>
<path d="M3.90918 22.0003L3.95904 9.97023C3.95904 9.36023 4.24825 8.78029 4.72694 8.40029L11.7078 2.95027C12.4258 2.39027 13.4331 2.39027 14.1611 2.95027L21.142 8.39028C21.6306 8.77028 21.9099 9.35023 21.9099 9.97023V22.0003" stroke="#B6B6B6" stroke-width="1.5" stroke-miterlimit="10" stroke-linejoin="round"/>
<path d="M13.9309 17H11.9363C11.1086 17 10.4404 17.67 10.4404 18.5V22H15.4268V18.5C15.4268 17.67 14.7586 17 13.9309 17Z" stroke="#B6B6B6" stroke-width="1.5" stroke-miterlimit="10" stroke-linejoin="round"/>
<path d="M10.441 13.75H8.44649C7.89799 13.75 7.44922 13.3 7.44922 12.75V11.25C7.44922 10.7 7.89799 10.25 8.44649 10.25H10.441C10.9895 10.25 11.4383 10.7 11.4383 11.25V12.75C11.4383 13.3 10.9895 13.75 10.441 13.75Z" stroke="#B6B6B6" stroke-width="1.5" stroke-miterlimit="10" stroke-linejoin="round"/>
<path d="M17.4215 13.75H15.427C14.8785 13.75 14.4297 13.3 14.4297 12.75V11.25C14.4297 10.7 14.8785 10.25 15.427 10.25H17.4215C17.97 10.25 18.4188 10.7 18.4188 11.25V12.75C18.4188 13.3 17.97 13.75 17.4215 13.75Z" stroke="#B6B6B6" stroke-width="1.5" stroke-miterlimit="10" stroke-linejoin="round"/>
<path d="M19.915 7L19.885 4H15.4971" stroke="#B6B6B6" stroke-width="1.5" stroke-miterlimit="10" stroke-linecap="round" stroke-linejoin="round"/>
</svg>
